<mxfile host="app.diagrams.net" agent="Mozilla/5.0 (Windows NT 10.0; Win64; x64) AppleWebKit/537.36 (KHTML, like Gecko) Chrome/129.0.0.0 Safari/537.36 Edg/129.0.0.0" version="24.7.17">
  <diagram name="第 1 页" id="U8_30fp2nvI91OFab40k">
    <mxGraphModel dx="2796" dy="2189" grid="1" gridSize="10" guides="1" tooltips="1" connect="1" arrows="1" fold="1" page="1" pageScale="1" pageWidth="827" pageHeight="1169" math="0" shadow="0">
      <root>
        <mxCell id="0" />
        <mxCell id="1" parent="0" />
        <mxCell id="RmIIlUzGBDgc_fLuhPYh-38" value="" style="rounded=0;whiteSpace=wrap;html=1;dashed=1;fillColor=#dae8fc;strokeColor=#6c8ebf;" vertex="1" parent="1">
          <mxGeometry x="690" y="70" width="420" height="130" as="geometry" />
        </mxCell>
        <mxCell id="UFrKVk_Evucttn0kIX_x-103" value="" style="rounded=0;whiteSpace=wrap;html=1;fillColor=none;" parent="1" vertex="1">
          <mxGeometry x="100" y="60" width="1030" height="240" as="geometry" />
        </mxCell>
        <mxCell id="UFrKVk_Evucttn0kIX_x-15" value="" style="rounded=0;whiteSpace=wrap;html=1;fillColor=none;" parent="1" vertex="1">
          <mxGeometry x="100" y="400" width="1030" height="290" as="geometry" />
        </mxCell>
        <mxCell id="UFrKVk_Evucttn0kIX_x-48" value="" style="rounded=0;whiteSpace=wrap;html=1;fillColor=#f5f5f5;gradientColor=#b3b3b3;strokeColor=#666666;dashed=1;" parent="1" vertex="1">
          <mxGeometry x="170" y="470" width="940" height="90" as="geometry" />
        </mxCell>
        <mxCell id="UFrKVk_Evucttn0kIX_x-50" value="" style="shape=datastore;whiteSpace=wrap;html=1;fillColor=#808080;gradientColor=#b3b3b3;strokeColor=#808080;" parent="1" vertex="1">
          <mxGeometry x="230" y="485" width="70" height="60" as="geometry" />
        </mxCell>
        <mxCell id="UFrKVk_Evucttn0kIX_x-51" value="网格&lt;div&gt;数据&lt;/div&gt;" style="text;html=1;align=center;verticalAlign=middle;whiteSpace=wrap;rounded=0;" parent="1" vertex="1">
          <mxGeometry x="235" y="510" width="60" height="30" as="geometry" />
        </mxCell>
        <mxCell id="UFrKVk_Evucttn0kIX_x-7" value="" style="rounded=0;whiteSpace=wrap;html=1;fillColor=none;" parent="1" vertex="1">
          <mxGeometry x="100" y="700" width="1030" height="70" as="geometry" />
        </mxCell>
        <mxCell id="UFrKVk_Evucttn0kIX_x-18" value="" style="rounded=0;whiteSpace=wrap;html=1;fillColor=#f5f5f5;gradientColor=#b3b3b3;strokeColor=#666666;dashed=1;" parent="1" vertex="1">
          <mxGeometry x="170" y="590" width="940" height="90" as="geometry" />
        </mxCell>
        <mxCell id="UFrKVk_Evucttn0kIX_x-1" value="计算资源" style="rounded=1;whiteSpace=wrap;html=1;fillColor=#bac8d3;strokeColor=#23445d;" parent="1" vertex="1">
          <mxGeometry x="120" y="730" width="120" height="30" as="geometry" />
        </mxCell>
        <mxCell id="UFrKVk_Evucttn0kIX_x-2" value="存储资源" style="rounded=1;whiteSpace=wrap;html=1;fillColor=#bac8d3;strokeColor=#23445d;" parent="1" vertex="1">
          <mxGeometry x="330" y="730" width="120" height="30" as="geometry" />
        </mxCell>
        <mxCell id="UFrKVk_Evucttn0kIX_x-3" value="网络资源" style="rounded=1;whiteSpace=wrap;html=1;fillColor=#bac8d3;strokeColor=#23445d;" parent="1" vertex="1">
          <mxGeometry x="540" y="730" width="120" height="30" as="geometry" />
        </mxCell>
        <mxCell id="UFrKVk_Evucttn0kIX_x-4" value="主动冗余" style="rounded=1;whiteSpace=wrap;html=1;fillColor=#bac8d3;strokeColor=#23445d;" parent="1" vertex="1">
          <mxGeometry x="760" y="730" width="120" height="30" as="geometry" />
        </mxCell>
        <mxCell id="UFrKVk_Evucttn0kIX_x-5" value="安全" style="rounded=1;whiteSpace=wrap;html=1;fillColor=#bac8d3;strokeColor=#23445d;" parent="1" vertex="1">
          <mxGeometry x="980" y="730" width="120" height="30" as="geometry" />
        </mxCell>
        <mxCell id="UFrKVk_Evucttn0kIX_x-6" value="&lt;font face=&quot;Times New Roman&quot; style=&quot;font-size: 14px;&quot;&gt;&lt;b style=&quot;&quot;&gt;基础&lt;/b&gt;&lt;/font&gt;&lt;div&gt;&lt;font face=&quot;xRImtguvzTZKVekVsjoN&quot; style=&quot;font-size: 14px;&quot;&gt;&lt;b style=&quot;&quot;&gt;设施&lt;/b&gt;&lt;/font&gt;&lt;/div&gt;" style="whiteSpace=wrap;html=1;aspect=fixed;fillColor=none;" parent="1" vertex="1">
          <mxGeometry x="30" y="700" width="70" height="70" as="geometry" />
        </mxCell>
        <mxCell id="UFrKVk_Evucttn0kIX_x-8" value="&lt;b&gt;集约化基础信息资源池&lt;/b&gt;" style="text;html=1;align=center;verticalAlign=middle;whiteSpace=wrap;rounded=0;" parent="1" vertex="1">
          <mxGeometry x="485" y="700" width="210" height="30" as="geometry" />
        </mxCell>
        <mxCell id="UFrKVk_Evucttn0kIX_x-13" value="数&lt;div&gt;据&lt;/div&gt;&lt;div&gt;资&lt;/div&gt;&lt;div&gt;源&lt;/div&gt;" style="rounded=0;whiteSpace=wrap;html=1;fillColor=#f5f5f5;strokeColor=none;gradientColor=#b3b3b3;" parent="1" vertex="1">
          <mxGeometry x="120" y="590" width="40" height="90" as="geometry" />
        </mxCell>
        <mxCell id="UFrKVk_Evucttn0kIX_x-17" value="&lt;font style=&quot;font-size: 14px;&quot;&gt;&lt;b style=&quot;&quot;&gt;数&lt;/b&gt;&lt;/font&gt;&lt;div&gt;&lt;font style=&quot;font-size: 14px;&quot;&gt;&lt;b&gt;据&lt;/b&gt;&lt;/font&gt;&lt;/div&gt;&lt;div&gt;&lt;font style=&quot;font-size: 14px;&quot;&gt;&lt;b&gt;处&lt;/b&gt;&lt;/font&gt;&lt;/div&gt;&lt;div&gt;&lt;font style=&quot;font-size: 14px;&quot;&gt;&lt;b&gt;理&lt;/b&gt;&lt;/font&gt;&lt;/div&gt;&lt;div&gt;&lt;br&gt;&lt;/div&gt;" style="rounded=0;whiteSpace=wrap;html=1;fillColor=none;" parent="1" vertex="1">
          <mxGeometry x="30" y="400" width="70" height="290" as="geometry" />
        </mxCell>
        <mxCell id="UFrKVk_Evucttn0kIX_x-19" value="&lt;font face=&quot;Times New Roman&quot; style=&quot;font-size: 14px;&quot;&gt;&lt;b&gt;气象&lt;/b&gt;&lt;/font&gt;&lt;div&gt;&lt;font style=&quot;font-size: 14px;&quot;&gt;&lt;b&gt;数据&lt;/b&gt;&lt;/font&gt;&lt;/div&gt;" style="text;html=1;align=center;verticalAlign=middle;whiteSpace=wrap;rounded=0;" parent="1" vertex="1">
          <mxGeometry x="175" y="605" width="60" height="60" as="geometry" />
        </mxCell>
        <mxCell id="UFrKVk_Evucttn0kIX_x-21" value="实况监测数据" style="rounded=1;whiteSpace=wrap;html=1;fillColor=none;" parent="1" vertex="1">
          <mxGeometry x="235" y="600" width="95" height="30" as="geometry" />
        </mxCell>
        <mxCell id="UFrKVk_Evucttn0kIX_x-22" value="模式预报数据" style="rounded=1;whiteSpace=wrap;html=1;fillColor=none;" parent="1" vertex="1">
          <mxGeometry x="235" y="640" width="95" height="30" as="geometry" />
        </mxCell>
        <mxCell id="UFrKVk_Evucttn0kIX_x-23" value="雷达卫星数据" style="rounded=1;whiteSpace=wrap;html=1;fillColor=none;" parent="1" vertex="1">
          <mxGeometry x="350" y="600" width="100" height="30" as="geometry" />
        </mxCell>
        <mxCell id="UFrKVk_Evucttn0kIX_x-24" value="......" style="rounded=1;whiteSpace=wrap;html=1;fillColor=none;" parent="1" vertex="1">
          <mxGeometry x="350" y="640" width="100" height="30" as="geometry" />
        </mxCell>
        <mxCell id="UFrKVk_Evucttn0kIX_x-34" value="&lt;font face=&quot;Times New Roman&quot;&gt;&lt;span style=&quot;font-size: 14px;&quot;&gt;&lt;b&gt;静态&lt;/b&gt;&lt;/span&gt;&lt;/font&gt;&lt;br&gt;&lt;div&gt;&lt;font style=&quot;font-size: 14px;&quot;&gt;&lt;b&gt;数据&lt;/b&gt;&lt;/font&gt;&lt;/div&gt;" style="text;html=1;align=center;verticalAlign=middle;whiteSpace=wrap;rounded=1;" parent="1" vertex="1">
          <mxGeometry x="480" y="605" width="60" height="60" as="geometry" />
        </mxCell>
        <mxCell id="UFrKVk_Evucttn0kIX_x-35" value="地理数据" style="rounded=1;whiteSpace=wrap;html=1;fillColor=none;" parent="1" vertex="1">
          <mxGeometry x="540" y="600" width="100" height="30" as="geometry" />
        </mxCell>
        <mxCell id="UFrKVk_Evucttn0kIX_x-36" value="地图数据" style="rounded=1;whiteSpace=wrap;html=1;fillColor=none;" parent="1" vertex="1">
          <mxGeometry x="660" y="600" width="100" height="30" as="geometry" />
        </mxCell>
        <mxCell id="UFrKVk_Evucttn0kIX_x-37" value="行政及行业数据" style="rounded=1;whiteSpace=wrap;html=1;fillColor=none;" parent="1" vertex="1">
          <mxGeometry x="540" y="640" width="100" height="30" as="geometry" />
        </mxCell>
        <mxCell id="UFrKVk_Evucttn0kIX_x-38" value="隐患点/关注点" style="rounded=1;whiteSpace=wrap;html=1;fillColor=none;" parent="1" vertex="1">
          <mxGeometry x="660" y="640" width="100" height="30" as="geometry" />
        </mxCell>
        <mxCell id="UFrKVk_Evucttn0kIX_x-39" value="数&lt;div&gt;据&lt;/div&gt;&lt;div&gt;处&lt;/div&gt;&lt;div&gt;理&lt;/div&gt;" style="rounded=0;whiteSpace=wrap;html=1;fillColor=#f5f5f5;strokeColor=none;gradientColor=#b3b3b3;" parent="1" vertex="1">
          <mxGeometry x="120" y="410" width="40" height="150" as="geometry" />
        </mxCell>
        <mxCell id="UFrKVk_Evucttn0kIX_x-42" value="" style="html=1;shadow=0;dashed=0;align=center;verticalAlign=middle;shape=mxgraph.arrows2.arrow;dy=0.53;dx=19;direction=north;notch=0;" parent="1" vertex="1">
          <mxGeometry x="260" y="560" width="30" height="30" as="geometry" />
        </mxCell>
        <mxCell id="UFrKVk_Evucttn0kIX_x-43" value="" style="html=1;shadow=0;dashed=0;align=center;verticalAlign=middle;shape=mxgraph.arrows2.arrow;dy=0.53;dx=19;direction=north;notch=0;" parent="1" vertex="1">
          <mxGeometry x="1000" y="560" width="30" height="30" as="geometry" />
        </mxCell>
        <mxCell id="UFrKVk_Evucttn0kIX_x-44" value="&lt;b&gt;数据汇聚&lt;/b&gt;" style="text;html=1;align=center;verticalAlign=middle;whiteSpace=wrap;rounded=0;" parent="1" vertex="1">
          <mxGeometry x="340" y="560" width="60" height="30" as="geometry" />
        </mxCell>
        <mxCell id="UFrKVk_Evucttn0kIX_x-45" value="&lt;b&gt;提取清洗&lt;/b&gt;" style="text;html=1;align=center;verticalAlign=middle;whiteSpace=wrap;rounded=0;" parent="1" vertex="1">
          <mxGeometry x="500" y="560" width="60" height="30" as="geometry" />
        </mxCell>
        <mxCell id="UFrKVk_Evucttn0kIX_x-46" value="&lt;b&gt;数据质控&lt;/b&gt;" style="text;html=1;align=center;verticalAlign=middle;whiteSpace=wrap;rounded=0;" parent="1" vertex="1">
          <mxGeometry x="670" y="560" width="60" height="30" as="geometry" />
        </mxCell>
        <mxCell id="UFrKVk_Evucttn0kIX_x-47" value="&lt;b&gt;数据标准化&lt;/b&gt;" style="text;html=1;align=center;verticalAlign=middle;whiteSpace=wrap;rounded=0;" parent="1" vertex="1">
          <mxGeometry x="827" y="560" width="70" height="30" as="geometry" />
        </mxCell>
        <mxCell id="UFrKVk_Evucttn0kIX_x-49" value="&lt;b&gt;&lt;font style=&quot;font-size: 14px;&quot;&gt;存储&lt;/font&gt;&lt;/b&gt;" style="text;html=1;align=center;verticalAlign=middle;whiteSpace=wrap;rounded=0;" parent="1" vertex="1">
          <mxGeometry x="170" y="500" width="60" height="30" as="geometry" />
        </mxCell>
        <mxCell id="UFrKVk_Evucttn0kIX_x-52" value="实况&lt;div&gt;数据&lt;/div&gt;" style="shape=datastore;whiteSpace=wrap;html=1;fillColor=#808080;gradientColor=#b3b3b3;strokeColor=#808080;" parent="1" vertex="1">
          <mxGeometry x="370" y="485" width="70" height="60" as="geometry" />
        </mxCell>
        <mxCell id="UFrKVk_Evucttn0kIX_x-53" value="结构化&lt;div&gt;数据&lt;/div&gt;" style="shape=datastore;whiteSpace=wrap;html=1;fillColor=#808080;gradientColor=#b3b3b3;strokeColor=#808080;" parent="1" vertex="1">
          <mxGeometry x="827" y="485" width="70" height="60" as="geometry" />
        </mxCell>
        <mxCell id="UFrKVk_Evucttn0kIX_x-54" value="&lt;div&gt;文件&lt;/div&gt;&lt;div&gt;数据&lt;/div&gt;" style="shape=datastore;whiteSpace=wrap;html=1;fillColor=#808080;gradientColor=#b3b3b3;strokeColor=#808080;" parent="1" vertex="1">
          <mxGeometry x="995" y="485" width="70" height="60" as="geometry" />
        </mxCell>
        <mxCell id="UFrKVk_Evucttn0kIX_x-55" value="" style="rounded=0;whiteSpace=wrap;html=1;fillColor=#f5f5f5;gradientColor=#b3b3b3;strokeColor=#666666;dashed=1;" parent="1" vertex="1">
          <mxGeometry x="170" y="410" width="940" height="50" as="geometry" />
        </mxCell>
        <mxCell id="UFrKVk_Evucttn0kIX_x-56" value="&lt;b&gt;&lt;font style=&quot;font-size: 14px;&quot;&gt;加工&lt;/font&gt;&lt;/b&gt;" style="text;html=1;align=center;verticalAlign=middle;whiteSpace=wrap;rounded=0;" parent="1" vertex="1">
          <mxGeometry x="170" y="420" width="60" height="30" as="geometry" />
        </mxCell>
        <mxCell id="UFrKVk_Evucttn0kIX_x-57" value="数据分析统计" style="rounded=1;whiteSpace=wrap;html=1;fillColor=none;" parent="1" vertex="1">
          <mxGeometry x="230" y="420" width="120" height="30" as="geometry" />
        </mxCell>
        <mxCell id="UFrKVk_Evucttn0kIX_x-58" value="气象数据标记" style="rounded=1;whiteSpace=wrap;html=1;fillColor=none;" parent="1" vertex="1">
          <mxGeometry x="410" y="420" width="120" height="30" as="geometry" />
        </mxCell>
        <mxCell id="UFrKVk_Evucttn0kIX_x-59" value="行业数据关联" style="rounded=1;whiteSpace=wrap;html=1;fillColor=none;" parent="1" vertex="1">
          <mxGeometry x="600" y="420" width="120" height="30" as="geometry" />
        </mxCell>
        <mxCell id="UFrKVk_Evucttn0kIX_x-60" value="场景提取" style="rounded=1;whiteSpace=wrap;html=1;fillColor=none;" parent="1" vertex="1">
          <mxGeometry x="945" y="420" width="120" height="30" as="geometry" />
        </mxCell>
        <mxCell id="UFrKVk_Evucttn0kIX_x-61" value="" style="rounded=0;whiteSpace=wrap;html=1;fillColor=none;" parent="1" vertex="1">
          <mxGeometry x="100" y="310" width="1030" height="80" as="geometry" />
        </mxCell>
        <mxCell id="UFrKVk_Evucttn0kIX_x-64" value="&lt;div&gt;&lt;span style=&quot;font-size: 14px;&quot;&gt;&lt;b&gt;平&lt;/b&gt;&lt;/span&gt;&lt;/div&gt;&lt;div&gt;&lt;span style=&quot;font-size: 14px;&quot;&gt;&lt;b&gt;台&lt;/b&gt;&lt;/span&gt;&lt;/div&gt;&lt;div&gt;&lt;span style=&quot;font-size: 14px;&quot;&gt;&lt;b&gt;服&lt;/b&gt;&lt;/span&gt;&lt;/div&gt;&lt;div&gt;&lt;span style=&quot;font-size: 14px;&quot;&gt;&lt;b&gt;务&lt;/b&gt;&lt;/span&gt;&lt;/div&gt;" style="rounded=0;whiteSpace=wrap;html=1;fillColor=none;" parent="1" vertex="1">
          <mxGeometry x="30" y="310" width="70" height="80" as="geometry" />
        </mxCell>
        <mxCell id="UFrKVk_Evucttn0kIX_x-96" value="GIS服务" style="rounded=1;whiteSpace=wrap;html=1;fillColor=#d5e8d4;strokeColor=#82b366;" parent="1" vertex="1">
          <mxGeometry x="160" y="350" width="120" height="30" as="geometry" />
        </mxCell>
        <mxCell id="UFrKVk_Evucttn0kIX_x-97" value="消息队列" style="rounded=1;whiteSpace=wrap;html=1;fillColor=#d5e8d4;strokeColor=#82b366;" parent="1" vertex="1">
          <mxGeometry x="345" y="350" width="120" height="30" as="geometry" />
        </mxCell>
        <mxCell id="UFrKVk_Evucttn0kIX_x-98" value="查询服务" style="rounded=1;whiteSpace=wrap;html=1;fillColor=#d5e8d4;strokeColor=#82b366;" parent="1" vertex="1">
          <mxGeometry x="555" y="350" width="120" height="30" as="geometry" />
        </mxCell>
        <mxCell id="UFrKVk_Evucttn0kIX_x-99" value="API网关" style="rounded=1;whiteSpace=wrap;html=1;fillColor=#d5e8d4;strokeColor=#82b366;" parent="1" vertex="1">
          <mxGeometry x="770" y="350" width="120" height="30" as="geometry" />
        </mxCell>
        <mxCell id="UFrKVk_Evucttn0kIX_x-104" value="" style="rounded=0;whiteSpace=wrap;html=1;dashed=1;fillColor=#dae8fc;strokeColor=#6c8ebf;" parent="1" vertex="1">
          <mxGeometry x="120" y="70" width="420" height="130" as="geometry" />
        </mxCell>
        <mxCell id="UFrKVk_Evucttn0kIX_x-105" value="&lt;span style=&quot;font-size: 14px;&quot;&gt;&lt;b&gt;应&lt;/b&gt;&lt;/span&gt;&lt;div&gt;&lt;span style=&quot;font-size: 14px;&quot;&gt;&lt;b&gt;用&lt;/b&gt;&lt;/span&gt;&lt;/div&gt;&lt;div&gt;&lt;span style=&quot;font-size: 14px;&quot;&gt;&lt;b&gt;平&lt;/b&gt;&lt;/span&gt;&lt;/div&gt;&lt;div&gt;&lt;span style=&quot;font-size: 14px;&quot;&gt;&lt;b&gt;台&lt;/b&gt;&lt;/span&gt;&lt;br&gt;&lt;div&gt;&lt;div&gt;&lt;br&gt;&lt;/div&gt;&lt;div&gt;&lt;br&gt;&lt;/div&gt;&lt;div&gt;&lt;br&gt;&lt;/div&gt;&lt;/div&gt;&lt;/div&gt;" style="rounded=0;whiteSpace=wrap;html=1;fillColor=none;" parent="1" vertex="1">
          <mxGeometry x="30" y="60" width="70" height="240" as="geometry" />
        </mxCell>
        <mxCell id="UFrKVk_Evucttn0kIX_x-107" value="&lt;font style=&quot;font-size: 14px;&quot;&gt;&lt;b style=&quot;&quot;&gt;城&lt;span style=&quot;background-color: initial;&quot;&gt;市&lt;/span&gt;&lt;/b&gt;&lt;/font&gt;&lt;div&gt;&lt;font style=&quot;font-size: 14px;&quot;&gt;&lt;b&gt;灾&lt;span style=&quot;background-color: initial;&quot;&gt;害&lt;/span&gt;&lt;/b&gt;&lt;/font&gt;&lt;/div&gt;&lt;div&gt;&lt;font style=&quot;font-size: 14px;&quot;&gt;&lt;b&gt;智&lt;span style=&quot;background-color: initial;&quot;&gt;治&lt;/span&gt;&lt;/b&gt;&lt;/font&gt;&lt;/div&gt;&lt;div&gt;&lt;font style=&quot;font-size: 14px;&quot;&gt;&lt;b style=&quot;&quot;&gt;先&lt;span style=&quot;background-color: initial;&quot;&gt;导&lt;/span&gt;&lt;/b&gt;&lt;/font&gt;&lt;/div&gt;&lt;div&gt;&lt;font style=&quot;font-size: 14px;&quot;&gt;&lt;b&gt;平&lt;span style=&quot;background-color: initial;&quot;&gt;台&lt;/span&gt;&lt;/b&gt;&lt;/font&gt;&lt;/div&gt;" style="rounded=1;whiteSpace=wrap;html=1;fillColor=none;strokeColor=none;" parent="1" vertex="1">
          <mxGeometry x="150" y="77.5" width="35" height="115" as="geometry" />
        </mxCell>
        <mxCell id="UFrKVk_Evucttn0kIX_x-118" value="" style="rounded=0;whiteSpace=wrap;html=1;fillColor=none;" parent="1" vertex="1">
          <mxGeometry x="100" y="-20" width="1030" height="70" as="geometry" />
        </mxCell>
        <mxCell id="UFrKVk_Evucttn0kIX_x-119" value="&lt;span style=&quot;font-size: 14px;&quot;&gt;&lt;b&gt;用&lt;/b&gt;&lt;/span&gt;&lt;div&gt;&lt;span style=&quot;font-size: 14px;&quot;&gt;&lt;b&gt;户&lt;/b&gt;&lt;/span&gt;&lt;/div&gt;" style="rounded=0;whiteSpace=wrap;html=1;fillColor=none;" parent="1" vertex="1">
          <mxGeometry x="30" y="-20" width="70" height="70" as="geometry" />
        </mxCell>
        <mxCell id="UFrKVk_Evucttn0kIX_x-120" value="业务用户" style="rounded=1;whiteSpace=wrap;html=1;fillColor=#e1d5e7;strokeColor=#9673a6;" parent="1" vertex="1">
          <mxGeometry x="120" width="250" height="30" as="geometry" />
        </mxCell>
        <mxCell id="UFrKVk_Evucttn0kIX_x-121" value="决策用户" style="rounded=1;whiteSpace=wrap;html=1;fillColor=#e1d5e7;strokeColor=none;" parent="1" vertex="1">
          <mxGeometry x="490" width="250" height="30" as="geometry" />
        </mxCell>
        <mxCell id="UFrKVk_Evucttn0kIX_x-122" value="管理用户" style="rounded=1;whiteSpace=wrap;html=1;fillColor=#e1d5e7;strokeColor=#9673a6;" parent="1" vertex="1">
          <mxGeometry x="860" width="250" height="30" as="geometry" />
        </mxCell>
        <mxCell id="UFrKVk_Evucttn0kIX_x-125" value="国产数据库" style="text;html=1;align=center;verticalAlign=middle;whiteSpace=wrap;rounded=0;" parent="1" vertex="1">
          <mxGeometry x="230" y="480" width="70" height="30" as="geometry" />
        </mxCell>
        <mxCell id="UFrKVk_Evucttn0kIX_x-126" value="国产数据库" style="text;html=1;align=center;verticalAlign=middle;whiteSpace=wrap;rounded=0;" parent="1" vertex="1">
          <mxGeometry x="370" y="480" width="70" height="30" as="geometry" />
        </mxCell>
        <mxCell id="UFrKVk_Evucttn0kIX_x-127" value="国产数据库" style="text;html=1;align=center;verticalAlign=middle;whiteSpace=wrap;rounded=0;" parent="1" vertex="1">
          <mxGeometry x="827" y="480" width="70" height="30" as="geometry" />
        </mxCell>
        <mxCell id="UFrKVk_Evucttn0kIX_x-128" value="国产数据库" style="text;html=1;align=center;verticalAlign=middle;whiteSpace=wrap;rounded=0;" parent="1" vertex="1">
          <mxGeometry x="995" y="480" width="70" height="30" as="geometry" />
        </mxCell>
        <mxCell id="UFrKVk_Evucttn0kIX_x-129" value="&lt;div&gt;&lt;span style=&quot;font-size: 24px;&quot;&gt;&lt;b&gt;城&lt;/b&gt;&lt;/span&gt;&lt;/div&gt;&lt;div&gt;&lt;span style=&quot;font-size: 24px;&quot;&gt;&lt;b&gt;市&lt;/b&gt;&lt;/span&gt;&lt;/div&gt;&lt;div&gt;&lt;span style=&quot;font-size: 24px;&quot;&gt;&lt;b&gt;智&lt;/b&gt;&lt;/span&gt;&lt;/div&gt;&lt;div&gt;&lt;span style=&quot;font-size: 24px;&quot;&gt;&lt;b&gt;治&lt;/b&gt;&lt;/span&gt;&lt;/div&gt;&lt;div&gt;&lt;span style=&quot;font-size: 24px;&quot;&gt;&lt;b&gt;气&lt;/b&gt;&lt;/span&gt;&lt;/div&gt;&lt;div&gt;&lt;span style=&quot;font-size: 24px;&quot;&gt;&lt;b&gt;象&lt;/b&gt;&lt;/span&gt;&lt;/div&gt;&lt;div&gt;&lt;span style=&quot;font-size: 24px;&quot;&gt;&lt;b&gt;先&lt;/b&gt;&lt;/span&gt;&lt;/div&gt;&lt;div&gt;&lt;span style=&quot;font-size: 24px;&quot;&gt;&lt;b&gt;导&lt;/b&gt;&lt;/span&gt;&lt;/div&gt;&lt;div&gt;&lt;span style=&quot;font-size: 24px;&quot;&gt;&lt;b&gt;系&lt;/b&gt;&lt;/span&gt;&lt;/div&gt;&lt;div&gt;&lt;span style=&quot;font-size: 24px;&quot;&gt;&lt;b&gt;统&lt;/b&gt;&lt;/span&gt;&lt;/div&gt;&lt;div&gt;&lt;br&gt;&lt;/div&gt;&lt;div&gt;&lt;br&gt;&lt;/div&gt;&lt;div&gt;&lt;br&gt;&lt;/div&gt;&lt;div&gt;&lt;br&gt;&lt;/div&gt;&lt;div&gt;&lt;br&gt;&lt;/div&gt;" style="rounded=0;whiteSpace=wrap;html=1;fillColor=none;" parent="1" vertex="1">
          <mxGeometry x="-50" y="-20" width="70" height="790" as="geometry" />
        </mxCell>
        <mxCell id="RmIIlUzGBDgc_fLuhPYh-1" value="&lt;font face=&quot;Times New Roman&quot;&gt;&lt;span style=&quot;font-size: 14px;&quot;&gt;&lt;b&gt;动态&lt;/b&gt;&lt;/span&gt;&lt;/font&gt;&lt;br&gt;&lt;div&gt;&lt;font style=&quot;font-size: 14px;&quot;&gt;&lt;b&gt;数据&lt;/b&gt;&lt;/font&gt;&lt;/div&gt;" style="text;html=1;align=center;verticalAlign=middle;whiteSpace=wrap;rounded=1;" vertex="1" parent="1">
          <mxGeometry x="800" y="605" width="60" height="60" as="geometry" />
        </mxCell>
        <mxCell id="RmIIlUzGBDgc_fLuhPYh-2" value="传感器数据" style="rounded=1;whiteSpace=wrap;html=1;fillColor=none;" vertex="1" parent="1">
          <mxGeometry x="860" y="600" width="100" height="30" as="geometry" />
        </mxCell>
        <mxCell id="RmIIlUzGBDgc_fLuhPYh-3" value="视频流数据" style="rounded=1;whiteSpace=wrap;html=1;fillColor=none;" vertex="1" parent="1">
          <mxGeometry x="980" y="600" width="100" height="30" as="geometry" />
        </mxCell>
        <mxCell id="RmIIlUzGBDgc_fLuhPYh-9" value="上报数据" style="rounded=1;whiteSpace=wrap;html=1;fillColor=none;" vertex="1" parent="1">
          <mxGeometry x="860" y="640" width="100" height="30" as="geometry" />
        </mxCell>
        <mxCell id="RmIIlUzGBDgc_fLuhPYh-10" value="......" style="rounded=1;whiteSpace=wrap;html=1;fillColor=none;" vertex="1" parent="1">
          <mxGeometry x="980" y="640" width="100" height="30" as="geometry" />
        </mxCell>
        <mxCell id="RmIIlUzGBDgc_fLuhPYh-11" value="行业&lt;div&gt;专题库&lt;/div&gt;" style="shape=datastore;whiteSpace=wrap;html=1;fillColor=#808080;gradientColor=#b3b3b3;strokeColor=#808080;" vertex="1" parent="1">
          <mxGeometry x="510" y="485" width="70" height="60" as="geometry" />
        </mxCell>
        <mxCell id="RmIIlUzGBDgc_fLuhPYh-12" value="国产数据库" style="text;html=1;align=center;verticalAlign=middle;whiteSpace=wrap;rounded=0;" vertex="1" parent="1">
          <mxGeometry x="510" y="480" width="70" height="30" as="geometry" />
        </mxCell>
        <mxCell id="RmIIlUzGBDgc_fLuhPYh-13" value="&lt;div&gt;地理&lt;br&gt;专题库&lt;/div&gt;" style="shape=datastore;whiteSpace=wrap;html=1;fillColor=#808080;gradientColor=#b3b3b3;strokeColor=#808080;" vertex="1" parent="1">
          <mxGeometry x="665" y="485" width="70" height="60" as="geometry" />
        </mxCell>
        <mxCell id="RmIIlUzGBDgc_fLuhPYh-14" value="国产数据库" style="text;html=1;align=center;verticalAlign=middle;whiteSpace=wrap;rounded=0;" vertex="1" parent="1">
          <mxGeometry x="665" y="480" width="70" height="30" as="geometry" />
        </mxCell>
        <mxCell id="RmIIlUzGBDgc_fLuhPYh-15" value="数据表示转换" style="rounded=1;whiteSpace=wrap;html=1;fillColor=none;" vertex="1" parent="1">
          <mxGeometry x="770" y="420" width="120" height="30" as="geometry" />
        </mxCell>
        <mxCell id="RmIIlUzGBDgc_fLuhPYh-16" value="API网关" style="rounded=1;whiteSpace=wrap;html=1;fillColor=#d5e8d4;strokeColor=#82b366;" vertex="1" parent="1">
          <mxGeometry x="960" y="350" width="120" height="30" as="geometry" />
        </mxCell>
        <mxCell id="RmIIlUzGBDgc_fLuhPYh-19" value="&lt;font style=&quot;font-size: 12px;&quot; face=&quot;Times New Roman&quot;&gt;暴雨灾害综合风险预警&lt;/font&gt;" style="rounded=1;whiteSpace=wrap;html=1;fillColor=none;" vertex="1" parent="1">
          <mxGeometry x="225" y="120" width="285" height="30" as="geometry" />
        </mxCell>
        <mxCell id="RmIIlUzGBDgc_fLuhPYh-21" value="&lt;font style=&quot;font-size: 12px;&quot; face=&quot;Times New Roman&quot;&gt;城市内涝风险预警&lt;/font&gt;" style="rounded=1;whiteSpace=wrap;html=1;fillColor=none;" vertex="1" parent="1">
          <mxGeometry x="225" y="160" width="285" height="30" as="geometry" />
        </mxCell>
        <mxCell id="RmIIlUzGBDgc_fLuhPYh-23" value="&lt;font style=&quot;font-size: 12px;&quot; face=&quot;Times New Roman&quot;&gt;小流域山洪气象风险预警&lt;/font&gt;" style="rounded=1;whiteSpace=wrap;html=1;fillColor=none;" vertex="1" parent="1">
          <mxGeometry x="225" y="80" width="285" height="30" as="geometry" />
        </mxCell>
        <mxCell id="RmIIlUzGBDgc_fLuhPYh-24" value="&lt;font style=&quot;font-size: 14px;&quot;&gt;&lt;b style=&quot;&quot;&gt;城&lt;span style=&quot;background-color: initial;&quot;&gt;市&lt;/span&gt;&lt;/b&gt;&lt;/font&gt;&lt;div&gt;&lt;font style=&quot;font-size: 14px;&quot;&gt;&lt;b&gt;运&lt;span style=&quot;background-color: initial;&quot;&gt;行&lt;/span&gt;&lt;/b&gt;&lt;/font&gt;&lt;/div&gt;&lt;div&gt;&lt;font style=&quot;font-size: 14px;&quot;&gt;&lt;b&gt;&lt;span style=&quot;background-color: initial;&quot;&gt;保&lt;/span&gt;&lt;span style=&quot;background-color: initial;&quot;&gt;障&lt;/span&gt;&lt;/b&gt;&lt;/font&gt;&lt;/div&gt;&lt;div&gt;&lt;font style=&quot;font-size: 14px;&quot;&gt;&lt;b&gt;&lt;span style=&quot;background-color: initial;&quot;&gt;先&lt;/span&gt;&lt;span style=&quot;background-color: initial;&quot;&gt;导&lt;/span&gt;&lt;/b&gt;&lt;/font&gt;&lt;/div&gt;&lt;div&gt;&lt;font size=&quot;3&quot;&gt;&lt;b&gt;平&lt;span style=&quot;background-color: initial;&quot;&gt;台&lt;/span&gt;&lt;/b&gt;&lt;/font&gt;&lt;/div&gt;" style="rounded=1;whiteSpace=wrap;html=1;fillColor=none;strokeColor=none;" vertex="1" parent="1">
          <mxGeometry x="715" y="82.5" width="50" height="110" as="geometry" />
        </mxCell>
        <mxCell id="RmIIlUzGBDgc_fLuhPYh-26" value="&lt;font style=&quot;font-size: 12px;&quot;&gt;城市交通服务模块&lt;/font&gt;" style="rounded=1;whiteSpace=wrap;html=1;fillColor=none;" vertex="1" parent="1">
          <mxGeometry x="807" y="120" width="285" height="30" as="geometry" />
        </mxCell>
        <mxCell id="RmIIlUzGBDgc_fLuhPYh-28" value="&lt;font style=&quot;font-size: 12px;&quot;&gt;电力保供服务模块&lt;/font&gt;" style="rounded=1;whiteSpace=wrap;html=1;fillColor=none;" vertex="1" parent="1">
          <mxGeometry x="807" y="80" width="285" height="30" as="geometry" />
        </mxCell>
        <mxCell id="RmIIlUzGBDgc_fLuhPYh-29" value="&lt;font style=&quot;font-size: 12px;&quot;&gt;公共健康服务模块&lt;/font&gt;" style="rounded=1;whiteSpace=wrap;html=1;fillColor=none;" vertex="1" parent="1">
          <mxGeometry x="807" y="160" width="285" height="30" as="geometry" />
        </mxCell>
        <mxCell id="RmIIlUzGBDgc_fLuhPYh-32" value="" style="rounded=0;whiteSpace=wrap;html=1;fillColor=#dae8fc;strokeColor=#6c8ebf;dashed=1;" vertex="1" parent="1">
          <mxGeometry x="120" y="220" width="990" height="70" as="geometry" />
        </mxCell>
        <mxCell id="RmIIlUzGBDgc_fLuhPYh-40" value="&lt;b&gt;&lt;font style=&quot;font-size: 14px;&quot;&gt;城市智治气象先导综合平台&lt;/font&gt;&lt;/b&gt;" style="text;html=1;align=center;verticalAlign=middle;whiteSpace=wrap;rounded=0;" vertex="1" parent="1">
          <mxGeometry x="495" y="220" width="210" height="30" as="geometry" />
        </mxCell>
        <mxCell id="RmIIlUzGBDgc_fLuhPYh-41" value="“气象+” 数据底座" style="rounded=1;whiteSpace=wrap;html=1;fillColor=none;" vertex="1" parent="1">
          <mxGeometry x="170" y="250" width="120" height="30" as="geometry" />
        </mxCell>
        <mxCell id="RmIIlUzGBDgc_fLuhPYh-42" value="多图层GIS叠加" style="rounded=1;whiteSpace=wrap;html=1;fillColor=none;" vertex="1" parent="1">
          <mxGeometry x="350" y="250" width="120" height="30" as="geometry" />
        </mxCell>
        <mxCell id="RmIIlUzGBDgc_fLuhPYh-43" value="数据可视化展示" style="rounded=1;whiteSpace=wrap;html=1;fillColor=none;" vertex="1" parent="1">
          <mxGeometry x="550" y="250" width="120" height="30" as="geometry" />
        </mxCell>
        <mxCell id="RmIIlUzGBDgc_fLuhPYh-44" value="各类风险关键信息" style="rounded=1;whiteSpace=wrap;html=1;fillColor=none;" vertex="1" parent="1">
          <mxGeometry x="750" y="250" width="120" height="30" as="geometry" />
        </mxCell>
        <mxCell id="RmIIlUzGBDgc_fLuhPYh-45" value="各类场景显示" style="rounded=1;whiteSpace=wrap;html=1;fillColor=none;" vertex="1" parent="1">
          <mxGeometry x="955" y="250" width="120" height="30" as="geometry" />
        </mxCell>
        <mxCell id="RmIIlUzGBDgc_fLuhPYh-47" value="" style="html=1;shadow=0;dashed=0;align=center;verticalAlign=middle;shape=mxgraph.arrows2.twoWayArrow;dy=0.6;dx=35;" vertex="1" parent="1">
          <mxGeometry x="540" y="100" width="150" height="60" as="geometry" />
        </mxCell>
        <mxCell id="RmIIlUzGBDgc_fLuhPYh-55" value="&lt;b&gt;&lt;font style=&quot;font-size: 14px;&quot;&gt;综合对外接口&lt;/font&gt;&lt;/b&gt;" style="text;html=1;align=center;verticalAlign=middle;whiteSpace=wrap;rounded=0;" vertex="1" parent="1">
          <mxGeometry x="500" y="320" width="210" height="20" as="geometry" />
        </mxCell>
      </root>
    </mxGraphModel>
  </diagram>
</mxfile>
